<svg xmlns="http://www.w3.org/2000/svg" viewBox="0 0 640 140" width="640" height="140" role="img" aria-label="SKYFIT ZONE">
  <!-- Icon left -->
  <g transform="translate(0,5) scale(0.32)">
    <g fill="#0A0A0F">
      <ellipse cx="118" cy="78" rx="23" ry="24"/>
      <rect x="110" y="98" width="20" height="22" rx="6"/>
      <path d="M 92 118 C 92 118 78 145 86 175 C 92 198 108 220 128 228 L 158 232 C 148 205 142 170 132 138 Z" />
      <path d="M 102 118 C 92 105 78 92 62 78 C 48 66 36 72 32 88 C 28 104 38 124 52 132 C 64 139 78 138 88 126 L 110 108 Z"/>
      <ellipse cx="48" cy="102" rx="22" ry="18"/>
      <ellipse cx="92" cy="122" rx="18" ry="16"/>
    </g>
    <g fill="#C41E2A">
      <path d="M 210 85 C 198 98 188 118 192 138 C 196 150 208 152 214 138 L 220 105 Z"/>
      <ellipse cx="238" cy="92" rx="22" ry="23"/>
      <ellipse cx="214" cy="98" rx="13" ry="22"/>
      <rect x="228" y="112" width="18" height="20" rx="6"/>
      <path d="M 205 130 C 205 130 192 162 200 188 C 208 210 225 225 245 232 L 278 228 C 270 200 262 164 252 134 Z"/>
      <path d="M 205 142 C 195 155 188 175 192 195 C 196 212 210 218 220 206 L 228 170 Z"/>
      <path d="M 252 145 C 275 148 300 155 322 162 C 332 165 338 172 334 182 C 330 192 318 196 308 192 L 256 172 Z"/>
      <ellipse cx="240" cy="225" rx="38" ry="28"/>
    </g>
    <g fill="#1A1D2E" stroke="#0A0A0F" stroke-width="3">
      <rect x="322" y="162" width="26" height="18" rx="4" fill="#2A2E45" stroke="none"/>
      <ellipse cx="354" cy="171" rx="14" ry="20"/>
      <ellipse cx="378" cy="171" rx="16" ry="23" fill="#0F111E"/>
      <ellipse cx="354" cy="171" rx="14" ry="20" fill="none" stroke="#3A3E5A" stroke-width="2.5"/>
      <ellipse cx="378" cy="171" rx="16" ry="23" fill="none" stroke="#3A3E5A" stroke-width="2.5"/>
    </g>
    <g fill="#0A0A0F">
      <ellipse cx="92" cy="318" rx="38" ry="58"/>
      <ellipse cx="92" cy="318" rx="24" ry="38" fill="#1E2235" stroke="#0A0A0F" stroke-width="3"/>
      <ellipse cx="308" cy="318" rx="38" ry="58"/>
      <ellipse cx="308" cy="318" rx="24" ry="38" fill="#1E2235" stroke="#0A0A0F" stroke-width="3"/>
      <path d="M 92 318 A 108 108 0 0 0 308 318" fill="none" stroke="#0A0A0F" stroke-width="22" stroke-linecap="round"/>
      <path d="M 105 318 A 95 95 0 0 0 295 318" fill="none" stroke="#1E2235" stroke-width="6" stroke-linecap="round" opacity="0.9"/>
    </g>
    <g font-family="Impact, Anton, sans-serif" font-weight="900" text-anchor="middle">
      <text x="200" y="338" font-size="175" fill="#0A0A0F" stroke="#0A0A0F" stroke-width="6" paint-order="stroke" clip-path="url(#ct)">S</text>
      <text x="200" y="338" font-size="175" fill="#C41E2A" stroke="#7A0F1A" stroke-width="6" paint-order="stroke" clip-path="url(#cb)">S</text>
    </g>
    <defs><clipPath id="ct"><rect x="0" y="200" width="400" height="118"/></clipPath><clipPath id="cb"><rect x="0" y="318" width="400" height="120"/></clipPath></defs>
  </g>
  <!-- Wordmark -->
  <g font-family="Bebas Neue, Impact, sans-serif" transform="translate(135,0)">
    <text x="0" y="78" font-size="62" letter-spacing="2" fill="#0A0A0F">SKYFIT <tspan fill="#C41E2A">ZONE</tspan></text>
    <text x="0" y="102" font-family="Inter, sans-serif" font-size="13.5" letter-spacing="5.5" font-weight="700" fill="#6B7280">TRANSFORM • ELEVATE • DOMINATE</text>
    <rect x="0" y="112" width="360" height="3" rx="1.5" fill="#C41E2A" opacity="0.9"/>
  </g>
</svg>
